<?xml version="1.0" encoding="utf-8"?>
<svg viewBox="0 0 64 64" xmlns="http://www.w3.org/2000/svg" xmlns:xlink="http://www.w3.org/1999/xlink"><defs><linearGradient gradientUnits="userSpaceOnUse" id="ai-linear-gradient" x1="21.25" x2="47.25" y1="36.75" y2="62.75"><stop offset="0" stop-color="#eef4ff"/><stop offset="1" stop-color="#d4e5ff"/></linearGradient><linearGradient gradientUnits="userSpaceOnUse" id="ai-linear-gradient-2" x1="39.648" x2="45.148" y1="47.352" y2="52.852"><stop offset="0" stop-color="#87b1f5"/><stop offset="1" stop-color="#5889e7"/></linearGradient><linearGradient id="ai-linear-gradient-3" x1="22.75" x2="27.25" xlink:href="#ai-linear-gradient-2" y1="55.25" y2="59.75"/><linearGradient id="ai-linear-gradient-4" x1="27.25" x2="30.75" xlink:href="#ai-linear-gradient-2" y1="56.75" y2="60.25"/><linearGradient id="ai-linear-gradient-5" x1="31.75" x2="34.25" xlink:href="#ai-linear-gradient-2" y1="58.25" y2="60.75"/><linearGradient id="ai-linear-gradient-6" x1="14.504" x2="48.439" xlink:href="#ai-linear-gradient" y1="13.558" y2="47.493"/><linearGradient id="ai-linear-gradient-7" x1="19.75" x2="29.25" xlink:href="#ai-linear-gradient-2" y1="42.25" y2="51.75"/><linearGradient id="ai-linear-gradient-8" x1="9.5" x2="12.5" xlink:href="#ai-linear-gradient-2" y1="34.5" y2="37.5"/><linearGradient id="ai-linear-gradient-9" x1="15.793" x2="20.207" xlink:href="#ai-linear-gradient-2" y1="22.793" y2="27.207"/><linearGradient id="ai-linear-gradient-10" x1="13.793" x2="16.207" xlink:href="#ai-linear-gradient-2" y1="28.793" y2="31.207"/><linearGradient gradientUnits="userSpaceOnUse" id="ai-linear-gradient-11" x1="35.793" x2="38.207" y1="12.793" y2="15.207"><stop offset="0" stop-color="#ffd270"/><stop offset="1" stop-color="#f79f63"/></linearGradient><linearGradient id="ai-linear-gradient-12" x1="35.293" x2="41.707" xlink:href="#ai-linear-gradient-11" y1="29.293" y2="35.707"/><linearGradient id="ai-linear-gradient-13" x1="46.793" x2="49.207" xlink:href="#ai-linear-gradient-11" y1="17.793" y2="20.207"/><linearGradient id="ai-linear-gradient-14" x1="47.293" x2="51.707" xlink:href="#ai-linear-gradient-11" y1="23.293" y2="27.707"/><linearGradient id="ai-linear-gradient-15" x1="28.293" x2="31.707" xlink:href="#ai-linear-gradient-11" y1="18.293" y2="21.707"/><linearGradient id="ai-linear-gradient-16" x1="30.793" x2="33.207" xlink:href="#ai-linear-gradient-11" y1="25.793" y2="28.207"/><linearGradient id="ai-linear-gradient-17" x1="40.293" x2="46.707" xlink:href="#ai-linear-gradient-11" y1="8.293" y2="14.707"/><linearGradient id="ai-linear-gradient-18" x1="34.451" x2="48.451" xlink:href="#ai-linear-gradient-11" y1="16.451" y2="30.451"/><linearGradient id="ai-linear-gradient-19" x1="33.275" x2="39.275" xlink:href="#ai-linear-gradient-11" y1="15.275" y2="21.275"/><linearGradient id="ai-linear-gradient-20" x1="26.292" x2="27.708" xlink:href="#ai-linear-gradient-11" y1="26.291" y2="27.707"/><linearGradient id="ai-linear-gradient-21" x1="44.292" x2="45.708" xlink:href="#ai-linear-gradient-11" y1="32.291" y2="33.707"/><linearGradient id="ai-linear-gradient-22" x1="52.292" x2="53.708" xlink:href="#ai-linear-gradient-11" y1="18.291" y2="19.707"/><linearGradient id="ai-linear-gradient-23" x1="36.292" x2="37.708" xlink:href="#ai-linear-gradient-11" y1="8.291" y2="9.707"/></defs><title/><g id="Icons"><g data-name="Artificial Intelligence" id="Artificial_Intelligence"><polygon points="50 41 45 53 49 61 21 61 21 55 15 43 50 41" style="fill:url(#ai-linear-gradient)"/><polygon points="45 53 36 51 47.233 47.641 45 53" style="fill:url(#ai-linear-gradient-2)"/><rect height="7" style="fill:url(#ai-linear-gradient-3)" width="2" x="24" y="54"/><rect height="5" style="fill:url(#ai-linear-gradient-4)" width="2" x="28" y="56"/><rect height="3" style="fill:url(#ai-linear-gradient-5)" width="2" x="32" y="58"/><path d="M11,51V39H5V37l6-10A23.987,23.987,0,1,1,36,50.98Z" style="fill:url(#ai-linear-gradient-6)"/><polygon points="31 39 31 46 28 49 11 51 30 51 34 47 34 39 31 39" style="fill:url(#ai-linear-gradient-7)"/><polygon points="11 39 9 39 12 32 11 39" style="fill:url(#ai-linear-gradient-8)"/><path d="M21,26H15a1,1,0,0,1,0-2h6a1,1,0,0,1,0,2Z" style="fill:url(#ai-linear-gradient-9)"/><path d="M15,32a1,1,0,0,1-1-1V29a1,1,0,0,1,2,0v2A1,1,0,0,1,15,32Z" style="fill:url(#ai-linear-gradient-10)"/><path d="M37,16a1,1,0,0,1-1-1V13a1,1,0,0,1,2,0v2A1,1,0,0,1,37,16Z" style="fill:url(#ai-linear-gradient-11)"/><path d="M41,36a1,1,0,0,1-1-1V34H37a1,1,0,0,1-1-1V29a1,1,0,0,1,2,0v3h3a1,1,0,0,1,1,1v2A1,1,0,0,1,41,36Z" style="fill:url(#ai-linear-gradient-12)"/><path d="M49,20H47a1,1,0,0,1,0-2h2a1,1,0,0,1,0,2Z" style="fill:url(#ai-linear-gradient-13)"/><path d="M51,28a1,1,0,0,1-1-1V26H47a1,1,0,0,1,0-2h4a1,1,0,0,1,1,1v2A1,1,0,0,1,51,28Z" style="fill:url(#ai-linear-gradient-14)"/><path d="M29,22H27a1,1,0,0,1,0-2h1V19a1,1,0,0,1,1-1h4a1,1,0,0,1,0,2H30v1A1,1,0,0,1,29,22Z" style="fill:url(#ai-linear-gradient-15)"/><path d="M33,28H31a1,1,0,0,1,0-2h2a1,1,0,0,1,0,2Z" style="fill:url(#ai-linear-gradient-16)"/><path d="M45,16a1,1,0,0,1-1-1V12H41a1,1,0,0,1-1-1V9a1,1,0,0,1,2,0v1h3a1,1,0,0,1,1,1v4A1,1,0,0,1,45,16Z" style="fill:url(#ai-linear-gradient-17)"/><rect height="14" style="fill:url(#ai-linear-gradient-18)" width="14" x="33" y="15"/><rect height="6" style="fill:url(#ai-linear-gradient-19)" width="6" x="37" y="19"/><path d="M27,28a1,1,0,0,1-.009-2H27a1,1,0,0,1,0,2Z" style="fill:url(#ai-linear-gradient-20)"/><path d="M45,34a1,1,0,0,1-.009-2H45a1,1,0,0,1,0,2Z" style="fill:url(#ai-linear-gradient-21)"/><path d="M53,20a1,1,0,0,1-.009-2H53a1,1,0,0,1,0,2Z" style="fill:url(#ai-linear-gradient-22)"/><path d="M37,10a1,1,0,0,1-.009-2H37a1,1,0,0,1,0,2Z" style="fill:url(#ai-linear-gradient-23)"/></g></g></svg>