<?xml version="1.0" encoding="utf-8"?>
<svg data-name="Layer 3" id="Layer_3" viewBox="0 0 48 48" xmlns="http://www.w3.org/2000/svg" xmlns:xlink="http://www.w3.org/1999/xlink"><defs><linearGradient gradientUnits="userSpaceOnUse" id="community-linear-gradient" x1="9.16" x2="24.818" y1="17.514" y2="33.171"><stop offset="0" stop-color="#e4e9f4"/><stop offset="1" stop-color="#bccbe2"/></linearGradient><linearGradient id="community-linear-gradient-2" x1="13.661" x2="20.317" xlink:href="#community-linear-gradient" y1="2.672" y2="9.328"/><linearGradient id="community-linear-gradient-3" x1="23.171" x2="38.829" xlink:href="#community-linear-gradient" y1="17.514" y2="33.171"/><linearGradient id="community-linear-gradient-4" x1="27.672" x2="34.328" xlink:href="#community-linear-gradient" y1="2.672" y2="9.328"/><linearGradient gradientUnits="userSpaceOnUse" id="community-linear-gradient-5" x1="7.672" x2="14.328" y1="14.672" y2="21.328"><stop offset="0" stop-color="#9ebff5"/><stop offset="1" stop-color="#6f98e7"/></linearGradient><linearGradient id="community-linear-gradient-6" x1="3.171" x2="18.829" xlink:href="#community-linear-gradient-5" y1="29.514" y2="45.171"/><linearGradient id="community-linear-gradient-7" x1="0.741" x2="5.241" xlink:href="#community-linear-gradient-5" y1="35.176" y2="39.676"/><linearGradient id="community-linear-gradient-8" x1="33.672" x2="40.328" xlink:href="#community-linear-gradient-5" y1="14.672" y2="21.328"/><linearGradient id="community-linear-gradient-9" x1="29.171" x2="44.829" xlink:href="#community-linear-gradient-5" y1="29.514" y2="45.171"/><linearGradient id="community-linear-gradient-10" x1="38.745" x2="43.18" xlink:href="#community-linear-gradient-5" y1="34.245" y2="38.68"/><linearGradient id="community-linear-gradient-11" x1="20.672" x2="27.328" xlink:href="#community-linear-gradient-5" y1="16.672" y2="23.328"/><linearGradient id="community-linear-gradient-12" x1="16.671" x2="31.329" xlink:href="#community-linear-gradient-5" y1="31.014" y2="45.671"/><linearGradient id="community-linear-gradient-13" x1="12.09" x2="16.59" xlink:href="#community-linear-gradient-5" y1="35.525" y2="40.025"/><linearGradient id="community-linear-gradient-14" x1="24.149" x2="28.584" xlink:href="#community-linear-gradient-5" y1="34.649" y2="39.084"/></defs><path d="M18.989,15h-4a8,8,0,0,0-8,8v4a3.992,3.992,0,0,0,3,3.87,3.657,3.657,0,0,0,1,.13v4h12V31a3.657,3.657,0,0,0,1-.13,3.992,3.992,0,0,0,3-3.87V23A8,8,0,0,0,18.989,15Z" style="fill:url(#community-linear-gradient)"/><rect height="10" rx="4" style="fill:url(#community-linear-gradient-2)" width="8" x="12.989" y="1"/><path d="M33,15H29a8,8,0,0,0-8,8v4a3.992,3.992,0,0,0,3,3.87A3.657,3.657,0,0,0,25,31v4H37V31a3.657,3.657,0,0,0,1-.13A3.992,3.992,0,0,0,41,27V23A8,8,0,0,0,33,15Z" style="fill:url(#community-linear-gradient-3)"/><rect height="10" rx="4" style="fill:url(#community-linear-gradient-4)" width="8" x="27" y="1"/><rect height="10" rx="4" style="fill:url(#community-linear-gradient-5)" width="8" x="7" y="13"/><path d="M13,27H9a8,8,0,0,0-8,8v4a3.992,3.992,0,0,0,3,3.87A3.657,3.657,0,0,0,5,43v4H17V43a3.657,3.657,0,0,0,1-.13A3.992,3.992,0,0,0,21,39V35A8,8,0,0,0,13,27Z" style="fill:url(#community-linear-gradient-6)"/><path d="M5,35v8a3.657,3.657,0,0,1-1-.13V35Z" style="fill:url(#community-linear-gradient-7)"/><rect height="10" rx="4" style="fill:url(#community-linear-gradient-8)" width="8" x="33" y="13"/><path d="M39,27H35a8,8,0,0,0-8,8v4a3.992,3.992,0,0,0,3,3.87A3.657,3.657,0,0,0,31,43v4H43V43a3.657,3.657,0,0,0,1-.13A3.992,3.992,0,0,0,47,39V35A8,8,0,0,0,39,27Z" style="fill:url(#community-linear-gradient-9)"/><path d="M44,35v7.87A3.657,3.657,0,0,1,43,43V35Z" style="fill:url(#community-linear-gradient-10)"/><rect height="10" rx="4" style="fill:url(#community-linear-gradient-11)" width="8" x="20" y="15"/><path d="M26,29H22a8,8,0,0,0-8,8v4a3.992,3.992,0,0,0,3,3.87A3.657,3.657,0,0,0,18,45v2H30V45a3.657,3.657,0,0,0,1-.13A3.992,3.992,0,0,0,34,41V37A8,8,0,0,0,26,29Z" style="fill:url(#community-linear-gradient-12)"/><path d="M18,37v8a3.657,3.657,0,0,1-1-.13V37Z" style="fill:url(#community-linear-gradient-13)"/><path d="M31,37v7.87A3.657,3.657,0,0,1,30,45V37Z" style="fill:url(#community-linear-gradient-14)"/></svg>