<?xml version="1.0" ?><svg id="web_development" style="enable-background:new 0 0 64 64;" version="1.1" viewBox="0 0 64 64" xml:space="preserve" xmlns="http://www.w3.org/2000/svg" xmlns:xlink="http://www.w3.org/1999/xlink"><g id="guide"><g/><g/><g/><g/><g/><g/><g/><g/><g/><g/><g/><g/><g/><g/><g/><g/><g/><g/><g/><g/><g/><g/><g/><g/><g/><g/><g/><g/><g/><g/><g/><g/><g/><g/><g/><g/></g><rect height="4" style="fill:#EFC062;" width="4" x="3" y="3"/><rect height="4" style="fill:#EFC062;" width="4" x="3" y="30"/><rect height="4" style="fill:#EFC062;" width="4" x="3" y="57"/><rect height="4" style="fill:#EFC062;" width="4" x="30" y="3"/><rect height="4" style="fill:#EFC062;" width="4" x="30" y="57"/><rect height="4" style="fill:#EFC062;" width="4" x="57" y="3"/><rect height="4" style="fill:#EFC062;" width="4" x="57" y="30"/><rect height="4" style="fill:#EFC062;" width="4" x="57" y="57"/><rect height="2" style="fill:#2A60A0;" width="3" x="17" y="4"/><rect height="2" style="fill:#2A60A0;" width="3" x="11" y="4"/><rect height="2" style="fill:#2A60A0;" width="3" x="23" y="4"/><rect height="2" style="fill:#2A60A0;" width="3" x="44" y="4"/><rect height="2" style="fill:#2A60A0;" width="3" x="38" y="4"/><rect height="2" style="fill:#2A60A0;" width="3" x="50" y="4"/><rect height="2" style="fill:#2A60A0;" width="3" x="44" y="58"/><rect height="2" style="fill:#2A60A0;" width="3" x="38" y="58"/><rect height="2" style="fill:#2A60A0;" width="3" x="50" y="58"/><rect height="2" style="fill:#2A60A0;" width="3" x="17" y="58"/><rect height="2" style="fill:#2A60A0;" width="3" x="11" y="58"/><rect height="2" style="fill:#2A60A0;" width="3" x="23" y="58"/><rect height="3" style="fill:#2A60A0;" width="2" x="4" y="17"/><rect height="3" style="fill:#2A60A0;" width="2" x="4" y="23"/><rect height="3" style="fill:#2A60A0;" width="2" x="4" y="11"/><rect height="3" style="fill:#2A60A0;" width="2" x="58" y="17"/><rect height="3" style="fill:#2A60A0;" width="2" x="58" y="23"/><rect height="3" style="fill:#2A60A0;" width="2" x="58" y="11"/><rect height="3" style="fill:#2A60A0;" width="2" x="58" y="44"/><rect height="3" style="fill:#2A60A0;" width="2" x="58" y="50"/><rect height="3" style="fill:#2A60A0;" width="2" x="58" y="38"/><rect height="3" style="fill:#2A60A0;" width="2" x="4" y="44"/><rect height="3" style="fill:#2A60A0;" width="2" x="4" y="50"/><rect height="3" style="fill:#2A60A0;" width="2" x="4" y="38"/><rect height="8" style="fill:#2A60A0;" width="42" x="11" y="11"/><rect height="34" style="fill:#F6DDCB;" width="42" x="11" y="19"/><path d="M42.707,41.707l-1.414-1.414L46.586,35l-5.293-5.293l1.414-1.414l6,6  c0.391,0.391,0.391,1.023,0,1.414L42.707,41.707z" style="fill:#2A60A0;"/><path d="M21.293,41.707l-6-6c-0.391-0.391-0.391-1.023,0-1.414l6-6l1.414,1.414L17.414,35l5.293,5.293  L21.293,41.707z" style="fill:#2A60A0;"/><rect height="1.999" style="fill:#2A60A0;" transform="matrix(0.3361 -0.9418 0.9418 0.3361 -12.4369 50.357)" width="14.866" x="22.067" y="33"/><rect height="2" style="fill:#2A60A0;" width="2" x="32" y="39"/><rect height="2" style="fill:#2A60A0;" width="2" x="36" y="39"/><rect height="2" style="fill:#FFFFFF;" width="3" x="14" y="14"/><rect height="2" style="fill:#FFFFFF;" width="3" x="19" y="14"/><rect height="2" style="fill:#FFFFFF;" width="3" x="24" y="14"/><rect height="2" style="fill:#FFFFFF;" width="18" x="32" y="14"/></svg>