<?xml version="1.0" encoding="utf-8"?>
<svg data-name="Layer 3" id="Layer_3" viewBox="0 0 24 24" xmlns="http://www.w3.org/2000/svg" xmlns:xlink="http://www.w3.org/1999/xlink"><defs><linearGradient gradientUnits="userSpaceOnUse" id="time-linear-gradient" x1="4.929" x2="19.071" y1="4.929" y2="19.071"><stop offset="0" stop-color="#eaf6ff"/><stop offset="1" stop-color="#addcff"/></linearGradient><linearGradient gradientUnits="userSpaceOnUse" id="time-linear-gradient-2" x1="2.793" x2="19.068" y1="2.793" y2="19.068"><stop offset="0" stop-color="#00c0ff"/><stop offset="1" stop-color="#1f9bff"/></linearGradient><linearGradient id="time-linear-gradient-3" x1="10.293" x2="16.707" xlink:href="#time-linear-gradient-2" y1="8.293" y2="14.707"/></defs><circle cx="12" cy="12" r="10" style="fill:url(#time-linear-gradient)"/><path d="M12,2A9.95,9.95,0,0,0,5,4.891V3A1,1,0,0,0,3,3V6A1.993,1.993,0,0,0,4.026,7.736h0A1.986,1.986,0,0,0,5,8H8A1,1,0,0,0,8,6H6.717A7.995,7.995,0,1,1,4,12a1,1,0,0,0-2,0A10,10,0,1,0,12,2Z" style="fill:url(#time-linear-gradient-2)"/><path d="M15,16a1,1,0,0,1-.707-.293l-3-3A1,1,0,0,1,11,12V8a1,1,0,0,1,2,0v3.586l2.707,2.707A1,1,0,0,1,15,16Z" style="fill:url(#time-linear-gradient-3)"/></svg>